<?xml version="1.0" standalone="no"?>
<!DOCTYPE svg PUBLIC "-//W3C//DTD SVG 20010904//EN"
 "http://www.w3.org/TR/2001/REC-SVG-20010904/DTD/svg10.dtd">
<svg version="1.0" xmlns="http://www.w3.org/2000/svg"
 width="120.000000pt" height="120.000000pt" viewBox="0 0 120.000000 120.000000"
 preserveAspectRatio="xMidYMid meet">
<metadata>
Created by potrace 1.14, written by Peter Selinger 2001-2017
</metadata>
<g transform="translate(0.000000,120.000000) scale(0.100000,-0.100000)"
fill="#000000" stroke="none">
<path d="M250 990 c-16 -10 -22 -58 -8 -66 4 -3 8 2 8 10 0 20 9 20 31 0 15
-14 17 -13 15 16 -2 35 -24 54 -46 40z m30 -20 c0 -5 -4 -10 -9 -10 -6 0 -13
5 -16 10 -3 6 1 10 9 10 9 0 16 -4 16 -10z"/>
<path d="M441 990 c-4 -3 -13 -19 -19 -37 l-11 -32 278 0 277 0 0 35 c0 23 -5
34 -16 35 -65 4 -503 3 -509 -1z"/>
<path d="M315 961 c1 -44 15 -51 15 -8 0 21 -4 37 -8 37 -4 0 -7 -13 -7 -29z"/>
<path d="M351 968 c25 -49 32 -51 46 -17 16 38 10 51 -8 18 l-12 -23 -8 22
c-5 12 -13 22 -19 22 -7 0 -7 -7 1 -22z"/>
<path d="M230 665 c0 -202 2 -235 15 -235 8 0 15 -8 14 -17 0 -11 -3 -13 -6
-5 -7 17 -23 15 -23 -3 0 -8 7 -15 15 -15 8 0 15 -4 15 -10 0 -18 33 -11 59
13 l26 22 -24 -27 c-28 -32 -21 -48 20 -48 17 0 28 -4 24 -9 -3 -5 4 -12 14
-16 24 -7 65 29 55 48 -5 8 -2 7 7 -1 12 -11 12 -15 -1 -25 -34 -27 -23 -45
36 -57 62 -13 70 -10 56 17 -6 11 -7 25 -2 33 9 14 14 1 22 -55 2 -12 10 -19
21 -19 9 1 26 2 37 3 25 1 23 27 -2 53 -10 10 -18 23 -18 30 0 6 6 3 14 -8 13
-17 14 -17 12 -1 -1 9 -8 23 -14 29 -7 7 -12 17 -12 22 0 6 5 3 11 -7 6 -9 15
-15 20 -11 5 3 9 2 8 -3 -4 -21 2 -34 12 -27 8 5 9 2 1 -11 -6 -12 -6 -28 0
-46 l10 -28 53 26 c34 17 51 31 48 40 -3 7 -9 11 -13 8 -5 -3 -12 0 -16 6 -4
7 -3 9 3 6 13 -8 23 15 23 55 0 21 -6 31 -20 35 -11 3 -17 10 -14 15 3 5 14 2
25 -8 23 -21 24 -7 4 44 l-15 37 20 -24 c11 -13 20 -37 20 -53 l0 -30 19 23
c18 23 18 20 -2 -38 -12 -34 -19 -65 -15 -68 6 -6 128 51 128 59 0 3 -7 12
-16 21 -13 13 -14 19 -5 28 10 9 12 9 9 -2 -4 -19 48 -33 65 -17 9 9 12 73 12
247 l0 234 -367 3 -368 2 0 -235z m115 115 c-4 -6 -11 -8 -16 -5 -5 4 -9 -10
-9 -29 0 -37 8 -44 27 -25 6 6 16 8 22 5 14 -9 14 -46 0 -46 -6 0 -9 7 -5 15
9 25 -12 17 -33 -14 -29 -40 -28 -65 2 -55 54 17 66 24 61 37 -3 8 3 20 12 28
15 12 16 11 10 -19 -4 -17 -4 -32 1 -32 23 1 100 34 116 50 9 11 24 17 32 14
21 -8 19 -21 -6 -34 -11 -7 -19 -13 -17 -16 9 -8 84 19 102 38 14 15 21 17 30
8 8 -8 7 -15 -6 -24 -34 -25 -23 -28 45 -11 15 4 33 15 40 24 17 24 62 52 70
44 12 -12 7 -22 -15 -34 -22 -12 -22 -11 -8 6 14 17 14 17 -7 4 -19 -11 -20
-15 -8 -22 19 -10 19 -27 0 -27 -8 0 -15 -4 -15 -10 0 -14 13 -13 70 6 27 9
54 14 60 12 6 -2 -18 -13 -54 -25 -53 -17 -69 -19 -79 -9 -7 7 -18 11 -25 8
-6 -2 -12 1 -12 6 0 5 -16 5 -41 -2 -30 -8 -42 -7 -47 1 -5 9 -20 9 -56 1 -36
-7 -50 -7 -56 1 -5 9 -19 8 -54 -4 -26 -9 -55 -15 -64 -14 -9 1 -30 -3 -45 -9
-64 -27 -90 -6 -63 49 9 18 12 35 7 38 -5 3 -8 17 -7 31 1 16 -6 30 -19 37
-18 11 -15 12 23 13 27 0 41 -4 37 -10z m170 1 c-3 -6 -14 -8 -25 -6 -11 2
-20 0 -20 -6 0 -5 8 -9 18 -9 16 -1 16 -1 0 -14 -25 -19 -22 -23 12 -18 18 3
30 0 30 -7 0 -6 -17 -11 -40 -11 l-40 0 0 40 c0 39 1 40 36 40 19 0 33 -4 29
-9z m211 -2 c5 -8 -1 -10 -18 -6 -36 9 -60 -19 -34 -39 14 -10 24 -10 39 -3
15 9 18 8 15 -3 -7 -20 -52 -21 -70 -1 -24 28 -7 63 31 63 16 0 33 -5 37 -11z
m132 -1 c-2 -7 7 -14 20 -16 15 -2 22 2 22 12 0 9 4 16 8 16 5 0 9 -19 9 -42
l1 -42 -19 25 -19 24 -19 -23 c-12 -13 -21 -18 -23 -10 -6 18 3 68 13 68 5 0
8 -6 7 -12z m-463 -27 c-3 -6 -11 -11 -16 -11 -5 0 -4 6 3 14 14 16 24 13 13
-3z m435 -246 c14 -19 14 -19 -2 -6 -10 7 -18 18 -18 24 0 6 1 8 3 6 1 -2 9
-13 17 -24z m-180 -47 c0 -4 -4 -8 -9 -8 -6 0 -12 4 -15 8 -3 5 1 9 9 9 8 0
15 -4 15 -9z m-270 -32 c0 -2 -7 -7 -16 -10 -8 -3 -12 -2 -9 4 6 10 25 14 25
6z m290 -9 c0 -7 -9 -18 -19 -24 -15 -10 -20 -9 -25 2 -3 9 0 12 9 8 8 -3 18
2 21 11 7 19 14 21 14 3z m-197 -42 c-3 -9 -8 -14 -10 -11 -3 3 -2 9 2 15 9
16 15 13 8 -4z m212 5 c3 -5 1 -10 -4 -10 -6 0 -11 5 -11 10 0 6 2 10 4 10 3
0 8 -4 11 -10z"/>
<path d="M413 213 c104 -2 270 -2 370 0 100 1 16 2 -188 2 -203 0 -285 -1
-182 -2z"/>
</g>
</svg>
